<svg width="24" height="24" viewBox="0 0 24 24" fill="none" xmlns="http://www.w3.org/2000/svg">
<path d="M19 22.0001H5C4.44772 22.0001 4 21.5524 4 21.0001V11.4141C4 11.1489 4.10545 10.8946 4.293 10.7071L11.293 3.70711C11.4806 3.51933 11.7351 3.41382 12.0005 3.41382C12.2659 3.41382 12.5204 3.51933 12.708 3.70711L19.708 10.7071C19.8957 10.8944 20.0009 11.1489 20 11.4141V21.0001C20 21.5524 19.5523 22.0001 19 22.0001ZM10 15.0001H14V20.0001H18V11.8281L12 5.8281L6 11.8281V20.0001H10V15.0001Z" fill="#B4D7FE"/>
</svg>
